<svg xmlns="http://www.w3.org/2000/svg" viewBox="0 0 512 512">
	<title>GenOER Reader — placeholder icon (see README: replace before a real deploy)</title>
	<rect width="512" height="512" rx="96" fill="#7a3b1e"/>
	<g fill="#fdfcf9">
		<path d="M120 140c0-11 9-20 20-20h96c22 0 40 9 52 24 12-15 30-24 52-24h96c11 0 20 9 20 20v220c0 11-9 20-20 20h-96c-19 0-35 8-46 21-5 6-15 6-20 0-11-13-27-21-46-21h-96c-11 0-20-9-20-20z"/>
		<path d="M256 164v208" stroke="#7a3b1e" stroke-width="10" fill="none"/>
	</g>
</svg>
